<svg xmlns="http://www.w3.org/2000/svg" width="2172.7166mm" height="700mm" viewBox="0 0 2172.7166 700"><path d="M0 0h-5.341v12.239h-9.181v18.36h-12.625l-7.221-15.09h-.106l-7.212 15.09h-12.623v-38.25h6.873c-5.37-3.616-8.904-9.755-8.904-16.72 0-11.13 9.019-20.146 20.144-20.146 4.147 0 8.003 1.252 11.209 3.405l-1.936-4.787h12.646l2.416 6.118H2.138l2.394-6.118h13.699z" style="fill:#231916;fill-opacity:1;fill-rule:nonzero;stroke:none" transform="matrix(5.8421 0 0 -5.8421 457.741 305.361)"/><path d="m0 0 8.427 21.296L16.852 0Zm23.013-10.936L9.224 23.922a.87.87 0 0 1-.797.54.865.865 0 0 1-.792-.54L1.733 9.002v25.012a.85.85 0 0 1-1.621.364L-11.944 9.067l-8.235 17.289 11.035 23.162V25.719c0-.466.375-.85.849-.85.468 0 .851.384.851.85v27.558c0 .4-.273.743-.665.83a.846.846 0 0 1-.953-.462l-12.061-25.314-12.061 25.314a.85.85 0 0 1-1.618-.368V25.719a.852.852 0 0 1 1.704 0v23.799l7.473-15.691V18.444a13.266 13.266 0 0 1-1.32-.32c-6.153-1.826-10.141-7.463-10.138-13.569 0-1.334.19-2.69.591-4.037 1.823-6.149 7.457-10.129 13.564-10.129 1.335 0 2.692.185 4.033.582A14.173 14.173 0 0 1-9.355.484a.85.85 0 1 1-1.63.489c-1.172-3.887-4.206-7.129-8.395-8.368a12.315 12.315 0 0 0-3.548-.519c-5.368 0-10.333 3.508-11.937 8.916a12.712 12.712 0 0 0-.514 3.553c0 5.37 3.502 10.335 8.913 11.937.285.082.558.156.841.216V6.455a.85.85 0 0 1 .854-.847c.468 0 .854.378.854.847v10.511c.338.027.674.044 1.006.044.244 0 .494-.009.737-.023a.845.845 0 0 1 .895.8.845.845 0 0 1-.794.896 14.21 14.21 0 0 1-1.844-.008v11.576l11.205-23.527a.852.852 0 0 1 .768-.488.85.85 0 0 1 .767.488L.032 30.251V4.699l-6.186-15.635a.843.843 0 0 1 .477-1.1.852.852 0 0 1 1.106.476l3.899 9.857h18.199l3.896-9.857a.855.855 0 0 1 .796-.54c.106 0 .213.017.314.064.436.17.652.66.48 1.1" style="fill:#fff;fill-opacity:1;fill-rule:nonzero;stroke:none" transform="matrix(5.8421 0 0 -5.8421 380.128 474.394)"/><path d="M0 0v10.224h2.126l2.636-4.385A27 27 0 0 0 6.508 2.41h.029a47.236 47.236 0 0 0-.164 4.247v3.567H8.1V0H6.175l-2.67 4.505c-.654 1.106-1.336 2.366-1.838 3.519l-.043-.016c.077-1.32.091-2.67.091-4.352V0Z" style="fill:#231916;fill-opacity:1;fill-rule:nonzero;stroke:none" transform="matrix(5.8421 0 0 -5.8421 611.54 459.019)"/><path d="M0 0c-1.319.03-2.58-.257-2.58-1.38 0-.728.471-1.062 1.063-1.062.745 0 1.289.484 1.456 1.015.044.137.061.288.061.411Zm1.821-1.835c0-.668.03-1.319.104-1.774H.244l-.123.819H.077c-.456-.578-1.229-.986-2.186-.986-1.486 0-2.319 1.076-2.319 2.199 0 1.865 1.652 2.806 4.381 2.791v.12c0 .487-.197 1.29-1.501 1.29-.728 0-1.487-.228-1.987-.545l-.364 1.213c.546.334 1.503.653 2.669.653 2.367 0 3.051-1.502 3.051-3.109z" style="fill:#231916;fill-opacity:1;fill-rule:nonzero;stroke:none" transform="matrix(5.8421 0 0 -5.8421 693.907 437.932)"/><path d="M0 0v-1.898h1.775v-1.394H0v-3.262C0-7.449.244-7.92.957-7.92c.35 0 .516.029.727.09l.031-1.424C1.439-9.36.957-9.451.364-9.451c-.682 0-1.26.241-1.608.622-.394.424-.574 1.093-.574 2.061v3.476h-1.064v1.394h1.064v1.367z" style="fill:#231916;fill-opacity:1;fill-rule:nonzero;stroke:none" transform="matrix(5.8421 0 0 -5.8421 728.049 404.78)"/><path d="M-34.997 344.352h10.989v43.156h-10.99zm11.62-12.046c0 3.26-2.39 5.842-6.21 5.842-3.628 0-6.018-2.583-6.018-5.842 0-3.377 2.489-5.954 6.117-5.954 3.721 0 6.023 2.577 6.11 5.954" style="fill:#231916;fill-opacity:1;fill-rule:nonzero;stroke:none;stroke-width:5.84209" transform="translate(781.666 71.517)"/><path d="M0 0c0-1.427.698-2.503 1.835-2.503C2.896-2.503 3.64-1.457 3.64.03c0 1.153-.515 2.473-1.789 2.473C.531 2.503 0 1.227 0 0m5.568.073c0-2.714-1.913-3.927-3.793-3.927-2.093 0-3.703 1.441-3.703 3.807 0 2.427 1.595 3.913 3.824 3.913 2.201 0 3.672-1.547 3.672-3.793" style="fill:#231916;fill-opacity:1;fill-rule:nonzero;stroke:none" transform="matrix(5.8421 0 0 -5.8421 777.887 437.482)"/><path d="M0 0c0 .85-.017 1.564-.061 2.199h1.638l.09-1.106h.048c.316.575 1.121 1.275 2.348 1.275 1.29 0 2.626-.837 2.626-3.173v-4.382H4.822v4.171C4.822.047 4.428.85 3.413.85 2.669.85 2.155.318 1.956-.243c-.06-.167-.075-.395-.075-.606v-4.338H0Z" style="fill:#231916;fill-opacity:1;fill-rule:nonzero;stroke:none" transform="matrix(5.8421 0 0 -5.8421 819.389 428.719)"/><path d="M0 0c-1.319.03-2.577-.257-2.577-1.38 0-.728.469-1.062 1.06-1.062.745 0 1.29.484 1.457 1.015.046.137.06.288.06.411Zm1.821-1.835c0-.668.03-1.319.107-1.774H.244l-.12.819H.078c-.456-.578-1.23-.986-2.186-.986-1.486 0-2.32 1.076-2.32 2.199 0 1.865 1.653 2.806 4.385 2.791v.12c0 .487-.198 1.29-1.505 1.29-.728 0-1.486-.228-1.985-.545l-.363 1.213c.543.334 1.5.653 2.669.653 2.367 0 3.048-1.502 3.048-3.109z" style="fill:#231916;fill-opacity:1;fill-rule:nonzero;stroke:none" transform="matrix(5.8421 0 0 -5.8421 892.968 437.932)"/><path d="M133.489 324.588h10.989v62.92h-10.99z" style="fill:#231916;fill-opacity:1;fill-rule:nonzero;stroke:none;stroke-width:5.84209" transform="translate(781.666 71.517)"/><path d="M0 0c-.063 1.32-.138 2.911-.123 4.308h-.044A53.286 53.286 0 0 0-1.379.378l-1.488-4.429h-1.44L-5.674.317a50.204 50.204 0 0 0-1.033 3.991h-.031a198.43 198.43 0 0 0-.18-4.369l-.228-4.11H-8.89l.682 10.224h2.456l1.338-4.112c.363-1.199.681-2.412.938-3.547h.048a50.486 50.486 0 0 0 1.014 3.561l1.412 4.098h2.427l.591-10.224H.198Z" style="fill:#231916;fill-opacity:1;fill-rule:nonzero;stroke:none" transform="matrix(5.8421 0 0 -5.8421 1007.172 434.652)"/><path d="M0 0c0-.879.029-1.607.06-2.213h-1.638L-1.67-1.09h-.031c-.317-.531-1.046-1.29-2.365-1.29-1.351 0-2.578.803-2.578 3.215v4.338h1.865v-4.02c0-1.227.394-2.015 1.38-2.015.742 0 1.23.528 1.427.999.061.167.104.364.104.578v4.458H0Z" style="fill:#231916;fill-opacity:1;fill-rule:nonzero;stroke:none" transform="matrix(5.8421 0 0 -5.8421 1068.274 446.09)"/><path d="M0 0c.425-.261 1.229-.531 1.896-.531.818 0 1.182.334 1.182.818 0 .501-.302.759-1.213 1.076-1.44.501-2.046 1.29-2.032 2.156 0 1.303 1.076 2.319 2.791 2.319.818 0 1.533-.21 1.959-.441L4.217 4.08c-.318.181-.912.425-1.563.425-.666 0-1.03-.32-1.03-.776 0-.47.347-.698 1.287-1.032C4.247 2.212 4.87 1.53 4.885.438c0-1.334-1.049-2.32-3.004-2.32-.895 0-1.7.228-2.246.531z" style="fill:#231916;fill-opacity:1;fill-rule:nonzero;stroke:none" transform="matrix(5.8421 0 0 -5.8421 1079.553 449)"/><path d="M0 0c.017.683-.288 1.805-1.531 1.805C-2.684 1.805-3.168.759-3.245 0Zm-3.245-1.306c.047-1.334 1.093-1.912 2.276-1.912.866 0 1.487.123 2.049.334l.27-1.289c-.634-.258-1.514-.469-2.577-.469-2.396 0-3.809 1.488-3.809 3.746 0 2.049 1.246 3.974 3.611 3.974 2.414 0 3.186-1.972 3.186-3.596 0-.347-.031-.621-.06-.788z" style="fill:#231916;fill-opacity:1;fill-rule:nonzero;stroke:none" transform="matrix(5.8421 0 0 -5.8421 1143.725 432.878)"/><path d="M0 0c0-.879.029-1.607.06-2.213h-1.638l-.089 1.123h-.031c-.32-.531-1.049-1.29-2.365-1.29-1.351 0-2.581.803-2.581 3.215v4.338h1.865v-4.02c0-1.227.394-2.015 1.38-2.015.744 0 1.23.528 1.428.999.06.167.106.364.106.578v4.458H0Z" style="fill:#231916;fill-opacity:1;fill-rule:nonzero;stroke:none" transform="matrix(5.8421 0 0 -5.8421 1201.453 446.09)"/><path d="M0 0c0 .85-.014 1.564-.061 2.199h1.609l.076-1.093h.046c.365.579 1.031 1.262 2.275 1.262.971 0 1.729-.547 2.046-1.365h.031c.26.408.561.712.911.923.408.29.88.442 1.488.442 1.227 0 2.474-.837 2.474-3.203v-4.352H9.074v4.082C9.074.121 8.648.85 7.752.85 7.115.85 6.646.395 6.45-.137a2.517 2.517 0 0 1-.094-.621v-4.429H4.537v4.278C4.537.121 4.126.85 3.262.85 2.566.85 2.095.305 1.928-.213a1.567 1.567 0 0 1-.107-.605v-4.369H0Z" style="fill:#231916;fill-opacity:1;fill-rule:nonzero;stroke:none" transform="matrix(5.8421 0 0 -5.8421 1213.26 428.719)"/><path d="M0 0c0-1.427.698-2.503 1.836-2.503 1.061 0 1.808 1.046 1.808 2.533 0 1.153-.518 2.473-1.792 2.473C.533 2.503 0 1.227 0 0m5.569.073c0-2.714-1.913-3.927-3.793-3.927-2.093 0-3.7 1.441-3.7 3.807 0 2.427 1.591 3.913 3.823 3.913 2.2 0 3.67-1.547 3.67-3.793" style="fill:#231916;fill-opacity:1;fill-rule:nonzero;stroke:none" transform="matrix(5.8421 0 0 -5.8421 1315.314 437.482)"/><path d="M0 0v5.992h-1.003v1.394H0v.318c0 .955.258 1.911.896 2.52.543.514 1.287.712 1.925.712.5 0 .894-.075 1.198-.181l-.135-1.441a2.223 2.223 0 0 1-.791.134c-.924 0-1.243-.77-1.243-1.681v-.381h1.623V5.992H1.864V0Z" style="fill:#231916;fill-opacity:1;fill-rule:nonzero;stroke:none" transform="matrix(5.8421 0 0 -5.8421 1358.071 459.019)"/><path d="M0 0c-.061 1.319-.138 2.911-.121 4.308h-.046A52.68 52.68 0 0 0-1.38.378l-1.487-4.429h-1.441L-5.674.317a48.6 48.6 0 0 0-1.03 3.991h-.031a219.297 219.297 0 0 0-.183-4.371l-.228-4.111H-8.89l.682 10.226h2.459l1.335-4.111a51.74 51.74 0 0 0 .938-3.551h.048a50.268 50.268 0 0 0 1.014 3.565l1.412 4.097h2.429l.591-10.226H.198z" style="fill:#231916;fill-opacity:1;fill-rule:nonzero;stroke:none" transform="matrix(5.8421 0 0 -5.8421 661.972 521.045)"/><path d="M0 0c0-1.424.698-2.503 1.838-2.503 1.058 0 1.805 1.049 1.805 2.532 0 1.155-.517 2.475-1.792 2.475C.531 2.504 0 1.23 0 0m5.568.077c0-2.714-1.913-3.93-3.79-3.93-2.096 0-3.703 1.444-3.703 3.81 0 2.426 1.594 3.913 3.823 3.913 2.199 0 3.67-1.547 3.67-3.793" style="fill:#231916;fill-opacity:1;fill-rule:nonzero;stroke:none" transform="matrix(5.8421 0 0 -5.8421 693.379 523.898)"/><path d="M0 0c0 .153-.014.334-.043.487-.167.729-.759 1.321-1.612 1.321-1.196 0-1.864-1.063-1.864-2.444 0-1.349.668-2.336 1.852-2.336.758 0 1.426.516 1.607 1.321.046.167.06.347.06.545zm1.865 6.463v-8.692c0-.759.033-1.578.063-2.079H.258L.184-3.139H.153c-.441-.818-1.336-1.336-2.412-1.336-1.762 0-3.155 1.503-3.155 3.78-.017 2.472 1.53 3.943 3.305 3.943 1.017 0 1.745-.425 2.08-.973H0v4.188z" style="fill:#231916;fill-opacity:1;fill-rule:nonzero;stroke:none" transform="matrix(5.8421 0 0 -5.8421 763.775 520.264)"/><path d="M0 0c.014.685-.291 1.808-1.534 1.808C-2.687 1.808-3.172.759-3.248 0Zm-3.248-1.304c.046-1.334 1.093-1.911 2.276-1.911.865 0 1.487.12 2.049.334l.273-1.29c-.638-.258-1.517-.473-2.579-.473-2.397 0-3.807 1.489-3.807 3.751 0 2.046 1.243 3.974 3.608 3.974 2.414 0 3.186-1.972 3.186-3.596 0-.347-.03-.623-.06-.789z" style="fill:#231916;fill-opacity:1;fill-rule:nonzero;stroke:none" transform="matrix(5.8421 0 0 -5.8421 813.085 519.288)"/><path d="M0 0c0 1.003-.015 1.715-.061 2.383h1.624l.06-1.41h.061c.364 1.046 1.23 1.577 2.019 1.577.181 0 .288-.017.438-.047V.745c-.15.03-.317.061-.546.061-.895 0-1.5-.578-1.667-1.411a3.25 3.25 0 0 1-.06-.578v-3.823H0Z" style="fill:#231916;fill-opacity:1;fill-rule:nonzero;stroke:none" transform="matrix(5.8421 0 0 -5.8421 832.157 516.185)"/><path d="M0 0c0 .849-.015 1.561-.061 2.199h1.638l.092-1.106h.046c.316.575 1.121 1.273 2.351 1.273 1.287 0 2.623-.835 2.623-3.171v-4.384H4.825v4.173c0 1.06-.394 1.865-1.412 1.865-.744 0-1.258-.532-1.456-1.093-.059-.167-.076-.394-.076-.605v-4.34H0Z" style="fill:#231916;fill-opacity:1;fill-rule:nonzero;stroke:none" transform="matrix(5.8421 0 0 -5.8421 863.724 515.112)"/><path d="M0 0c-1.319.028-2.58-.258-2.58-1.381 0-.728.471-1.062 1.062-1.062.743 0 1.29.485 1.457 1.016.044.137.061.286.061.41Zm1.818-1.838c0-.665.033-1.317.107-1.774H.241l-.121.818H.075c-.455-.575-1.227-.985-2.184-.985-1.486 0-2.322 1.079-2.322 2.201 0 1.865 1.655 2.805 4.385 2.791v.12c0 .485-.198 1.29-1.502 1.29-.728 0-1.487-.227-1.987-.545l-.364 1.214c.546.334 1.503.651 2.669.651 2.367 0 3.048-1.504 3.048-3.111z" style="fill:#231916;fill-opacity:1;fill-rule:nonzero;stroke:none" transform="matrix(5.8421 0 0 -5.8421 955.671 524.326)"/><path d="M0 0c0 .849-.014 1.561-.06 2.199h1.638l.092-1.106h.045c.317.575 1.122 1.273 2.351 1.273 1.288 0 2.624-.835 2.624-3.171v-4.384H4.825v4.173c0 1.06-.394 1.865-1.412 1.865-.744 0-1.258-.532-1.455-1.093-.059-.167-.076-.394-.076-.605v-4.34H0Z" style="fill:#231916;fill-opacity:1;fill-rule:nonzero;stroke:none" transform="matrix(5.8421 0 0 -5.8421 977.844 515.112)"/><path d="M0 0c0 .153-.014.334-.044.487-.166.729-.758 1.321-1.611 1.321-1.196 0-1.865-1.063-1.865-2.444 0-1.349.669-2.336 1.853-2.336.758 0 1.426.516 1.607 1.321.046.167.06.347.06.545zm1.865 6.463v-8.692c0-.759.033-1.578.063-2.079H.258L.184-3.139H.153c-.441-.818-1.337-1.336-2.412-1.336-1.761 0-3.155 1.503-3.155 3.78-.017 2.472 1.53 3.943 3.305 3.943 1.017 0 1.744-.425 2.08-.973H0v4.188z" style="fill:#231916;fill-opacity:1;fill-rule:nonzero;stroke:none" transform="matrix(5.8421 0 0 -5.8421 1057.457 520.264)"/><path d="M0 0c-.44-.228-1.411-.471-2.641-.471-3.244 0-5.217 2.048-5.217 5.159 0 3.367 2.336 5.401 5.462 5.401 1.227 0 2.108-.26 2.486-.457l-.411-1.485a4.983 4.983 0 0 1-2.001.395c-2.08 0-3.58-1.307-3.58-3.763 0-2.246 1.319-3.686 3.566-3.686.758 0 1.546.15 2.031.378z" style="fill:#231916;fill-opacity:1;fill-rule:nonzero;stroke:none" transform="matrix(5.8421 0 0 -5.8421 1141.694 543.655)"/><path d="M0 0c0-1.424.699-2.503 1.838-2.503 1.059 0 1.805 1.049 1.805 2.532 0 1.155-.516 2.475-1.792 2.475C.532 2.504 0 1.23 0 0m5.568.077c0-2.714-1.912-3.93-3.79-3.93-2.096 0-3.703 1.444-3.703 3.81 0 2.426 1.594 3.913 3.824 3.913 2.198 0 3.669-1.547 3.669-3.793" style="fill:#231916;fill-opacity:1;fill-rule:nonzero;stroke:none" transform="matrix(5.8421 0 0 -5.8421 1157.66 523.898)"/><path d="M0 0c0 .849-.014 1.561-.06 2.199h1.641l.089-1.106h.045c.32.575 1.122 1.273 2.351 1.273 1.29 0 2.624-.835 2.624-3.171v-4.384H4.825v4.173c0 1.06-.394 1.865-1.409 1.865-.747 0-1.26-.532-1.458-1.093-.059-.167-.076-.394-.076-.605v-4.34H0Z" style="fill:#231916;fill-opacity:1;fill-rule:nonzero;stroke:none" transform="matrix(5.8421 0 0 -5.8421 1199.162 515.112)"/><path d="M0 0v-1.896h1.775v-1.396H0v-3.262c0-.893.244-1.364.957-1.364.347 0 .514.03.727.091l.031-1.427C1.44-9.358.957-9.451.364-9.451c-.682 0-1.26.243-1.608.624-.394.425-.577 1.09-.577 2.062v3.473h-1.061v1.396h1.061v1.364z" style="fill:#231916;fill-opacity:1;fill-rule:nonzero;stroke:none" transform="matrix(5.8421 0 0 -5.8421 1261.945 491.19)"/><path d="M0 0c.017.685-.288 1.808-1.531 1.808C-2.684 1.808-3.168.759-3.245 0Zm-3.245-1.304c.044-1.334 1.093-1.911 2.276-1.911.862 0 1.487.12 2.046.334l.274-1.29c-.636-.258-1.518-.473-2.578-.473-2.399 0-3.809 1.489-3.809 3.751 0 2.046 1.243 3.974 3.611 3.974 2.41 0 3.187-1.972 3.187-3.596 0-.347-.032-.623-.06-.789z" style="fill:#231916;fill-opacity:1;fill-rule:nonzero;stroke:none" transform="matrix(5.8421 0 0 -5.8421 1306.71 519.288)"/><path d="M0 0c0 .849-.017 1.561-.06 2.199h1.609l.072-1.093h.047c.364.579 1.034 1.26 2.277 1.26.97 0 1.728-.548 2.047-1.366h.031c.258.41.56.715.908.925.411.288.88.441 1.489.441 1.229 0 2.473-.835 2.473-3.201v-4.354H9.072v4.08C9.072.12 8.646.849 7.75.849c-.635 0-1.106-.454-1.302-.986a2.578 2.578 0 0 1-.092-.622v-4.43H4.535v4.277C4.535.12 4.125.849 3.262.849c-.699 0-1.17-.545-1.337-1.063a1.583 1.583 0 0 1-.105-.604v-4.371H0Z" style="fill:#231916;fill-opacity:1;fill-rule:nonzero;stroke:none" transform="matrix(5.8421 0 0 -5.8421 1325.794 515.112)"/><path d="M0 0c0-.181.014-.348.061-.516a1.682 1.682 0 0 1 1.637-1.302c1.183 0 1.881.985 1.881 2.439 0 1.307-.638 2.369-1.836 2.369-.775 0-1.486-.561-1.669-1.383A1.647 1.647 0 0 1 0 1.141Zm-1.868 1.837c0 .97-.031 1.759-.06 2.458h1.64l.09-1.141h.031c.545.836 1.41 1.307 2.533 1.307 1.697 0 3.108-1.457 3.108-3.763 0-2.67-1.682-3.96-3.366-3.96-.925 0-1.701.395-2.08.986H0v-3.821h-1.868z" style="fill:#231916;fill-opacity:1;fill-rule:nonzero;stroke:none" transform="matrix(5.8421 0 0 -5.8421 1411.894 527.35)"/><path d="M0 0c0-1.424.698-2.503 1.838-2.503 1.059 0 1.805 1.049 1.805 2.532 0 1.155-.515 2.475-1.791 2.475C.531 2.504 0 1.23 0 0m5.568.077c0-2.714-1.912-3.93-3.791-3.93-2.094 0-3.702 1.444-3.702 3.81 0 2.426 1.594 3.913 3.823 3.913 2.2 0 3.67-1.547 3.67-3.793" style="fill:#231916;fill-opacity:1;fill-rule:nonzero;stroke:none" transform="matrix(5.8421 0 0 -5.8421 1461.358 523.898)"/><path d="M0 0c0 1.003-.014 1.715-.061 2.383h1.624l.061-1.41h.061C2.049 2.019 2.914 2.55 3.702 2.55c.181 0 .288-.017.442-.047V.745c-.154.03-.321.061-.548.061C2.7.806 2.095.228 1.928-.605a3.155 3.155 0 0 1-.061-.578v-3.823H0Z" style="fill:#231916;fill-opacity:1;fill-rule:nonzero;stroke:none" transform="matrix(5.8421 0 0 -5.8421 1502.863 516.185)"/><path d="M0 0c-1.32.028-2.58-.258-2.58-1.381 0-.728.472-1.062 1.062-1.062.743 0 1.29.485 1.457 1.016.044.137.061.286.061.41Zm1.818-1.838c0-.665.034-1.317.107-1.774H.241l-.121.818H.074c-.455-.575-1.227-.985-2.182-.985-1.488 0-2.324 1.079-2.324 2.201 0 1.865 1.655 2.805 4.385 2.791v.12c0 .485-.197 1.29-1.501 1.29-.728 0-1.486-.227-1.988-.545L-3.9 3.292c.547.334 1.504.651 2.671.651 2.366 0 3.047-1.504 3.047-3.111z" style="fill:#231916;fill-opacity:1;fill-rule:nonzero;stroke:none" transform="matrix(5.8421 0 0 -5.8421 1556.508 524.326)"/><path d="M0 0c0 1.003-.014 1.715-.061 2.383h1.624l.061-1.41h.06c.364 1.046 1.23 1.577 2.018 1.577.181 0 .288-.017.439-.047V.745c-.151.03-.318.061-.545.061C2.7.806 2.095.228 1.928-.605a3.155 3.155 0 0 1-.061-.578v-3.823H0Z" style="fill:#231916;fill-opacity:1;fill-rule:nonzero;stroke:none" transform="matrix(5.8421 0 0 -5.8421 1578.684 516.185)"/><path d="m0 0 1.334-3.96c.153-.455.304-1.017.411-1.44h.044c.123.423.257.968.394 1.457L3.336 0h2.002L3.489-5.036c-1.015-2.761-1.7-3.99-2.58-4.749-.728-.652-1.486-.896-1.955-.956l-.427 1.578c.321.076.714.243 1.092.517.351.227.759.666 1.017 1.167.076.136.123.244.123.333 0 .078-.017.181-.107.365L-2.048 0Z" style="fill:#231916;fill-opacity:1;fill-rule:nonzero;stroke:none" transform="matrix(5.8421 0 0 -5.8421 1619.031 502.264)"/><path d="m0 0-.802 2.52c-.197.622-.364 1.32-.517 1.911h-.031c-.151-.591-.304-1.303-.485-1.911L-2.623 0Zm-2.928-1.41-.879-2.898h-1.927l3.278 10.226h2.383L3.248-4.308H1.243L.32-1.41Z" style="fill:#231916;fill-opacity:1;fill-rule:nonzero;stroke:none" transform="matrix(5.8421 0 0 -5.8421 1704.403 520.264)"/><path d="M0 0c0 1.003-.017 1.715-.061 2.383h1.622l.06-1.41h.064C2.046 2.019 2.911 2.55 3.7 2.55c.183 0 .287-.017.441-.047V.745c-.154.03-.318.061-.548.061C2.7.806 2.092.228 1.925-.605a3.25 3.25 0 0 1-.06-.578v-3.823H0Z" style="fill:#231916;fill-opacity:1;fill-rule:nonzero;stroke:none" transform="matrix(5.8421 0 0 -5.8421 1730.853 516.185)"/><path d="M0 0v-1.896h1.774v-1.396H0v-3.262c0-.893.244-1.364.956-1.364.351 0 .518.03.729.091l.03-1.427C1.44-9.358.956-9.451.364-9.451c-.681 0-1.26.243-1.607.624-.395.425-.575 1.09-.575 2.062v3.473h-1.063v1.396h1.063v1.364z" style="fill:#231916;fill-opacity:1;fill-rule:nonzero;stroke:none" transform="matrix(5.8421 0 0 -5.8421 1776.945 491.19)"/><path d="M0 0a24.869 24.869 0 0 1 1.016 4.002l1.958.155C2.55 2.73 1.864 1.093 1.273.12Z" style="fill:#231916;fill-opacity:1;fill-rule:nonzero;stroke:none" transform="matrix(5.8421 0 0 -5.8421 1789.907 556.15)"/><path d="M0 0h1.852v-4.702h.046c.241.394.498.758.743 1.106L5.311 0h2.305L4.097-4.354l3.747-5.872H5.658L2.761-5.537 1.852-6.63v-3.596H0Z" style="fill:#231916;fill-opacity:1;fill-rule:nonzero;stroke:none" transform="matrix(5.8421 0 0 -5.8421 1834.767 485.69)"/><path d="M0 0c0-1.424.698-2.503 1.835-2.503 1.062 0 1.805 1.049 1.805 2.532 0 1.155-.515 2.475-1.788 2.475C.531 2.504 0 1.23 0 0m5.567.077c0-2.714-1.911-3.93-3.793-3.93-2.091 0-3.702 1.444-3.702 3.81 0 2.426 1.594 3.913 3.824 3.913 2.201 0 3.671-1.547 3.671-3.793" style="fill:#231916;fill-opacity:1;fill-rule:nonzero;stroke:none" transform="matrix(5.8421 0 0 -5.8421 1893.644 523.898)"/><path d="M0 0c0 1.003-.017 1.715-.061 2.383h1.622l.063-1.41h.06C2.048 2.019 2.911 2.55 3.699 2.55c.184 0 .29-.017.442-.047V.745c-.152.03-.319.061-.545.061C2.7.806 2.092.228 1.925-.605a3.245 3.245 0 0 1-.061-.578v-3.823H0Z" style="fill:#231916;fill-opacity:1;fill-rule:nonzero;stroke:none" transform="matrix(5.8421 0 0 -5.8421 1935.15 516.185)"/><path d="M0 0c.017.685-.287 1.808-1.53 1.808C-2.684 1.808-3.168.759-3.245 0Zm-3.245-1.304c.044-1.334 1.093-1.911 2.275-1.911.864 0 1.488.12 2.046.334l.275-1.29c-.636-.258-1.518-.473-2.578-.473-2.399 0-3.809 1.489-3.809 3.751 0 2.046 1.243 3.974 3.612 3.974 2.41 0 3.185-1.972 3.185-3.596 0-.347-.03-.623-.06-.789z" style="fill:#231916;fill-opacity:1;fill-rule:nonzero;stroke:none" transform="matrix(5.8421 0 0 -5.8421 1992.584 519.288)"/><path d="M0 0c-1.319.028-2.579-.258-2.579-1.381 0-.728.471-1.062 1.062-1.062.743 0 1.289.485 1.457 1.016.043.137.06.286.06.41zm1.818-1.838c0-.665.034-1.317.108-1.774H.241l-.12.818H.074c-.455-.575-1.226-.985-2.182-.985-1.488 0-2.323 1.079-2.323 2.201 0 1.865 1.655 2.805 4.385 2.791v.12c0 .485-.197 1.29-1.501 1.29-.728 0-1.487-.227-1.988-.545l-.364 1.214c.547.334 1.503.651 2.67.651 2.366 0 3.047-1.504 3.047-3.111z" style="fill:#231916;fill-opacity:1;fill-rule:nonzero;stroke:none" transform="matrix(5.8421 0 0 -5.8421 2034.533 524.326)"/><path d="M0 0v3.538h-7.022c.477 1.317.868 2.841 1.164 4.605.353 2.105.534 4.277.534 6.503v1.564h-21.162v-3.538h17.128c0-.609-.041-1.301-.115-2.076a32.821 32.821 0 0 0-.342-2.453 25.612 25.612 0 0 0-1.255-4.605h-20.743V0h13.933v-5.898h-8.791v-3.541h17.198v-9.134h4.034v12.675h-8.413V0Z" style="fill:#231916;fill-opacity:1;fill-rule:nonzero;stroke:none" transform="matrix(5.8421 0 0 -5.8421 771.742 249.525)"/><path d="M173.472 192.615H149.94V77.263h23.532zm-92.457 73.132h68.92V246.87h-68.92Zm-14.67 20.686c-5.947 0-8.897-2.962-8.897-8.88v-72.705h23.567v21.575h68.925v-21.575h23.532v81.585zm15.774-159.18v-20.651H17.225V85.898h88.461v61.82H40.781v20.688h27.323c3.873 0 8.372-.158 13.583-.444a592.283 592.283 0 0 0 16.112-1.233 251.253 251.253 0 0 0 16.317-2.033c5.352-.8 10.037-1.712 14.016-2.752l3.324 19.565c-4.282 1.332-9.494 2.448-15.68 3.33-6.123.894-12.567 1.63-19.303 2.22a541.821 541.821 0 0 1-20.687 1.443c-7.04.368-13.623.561-19.664.561h-30c-5.952 0-8.897-2.944-8.897-8.88v-52.93z" style="fill:#231916;fill-opacity:1;fill-rule:nonzero;stroke:none;stroke-width:5.84209" transform="translate(781.666 71.517)"/><path d="M0 0a3.385 3.385 0 0 0-.742-1.123A3.572 3.572 0 0 0-1.9-1.884a3.873 3.873 0 0 0-1.488-.282c-1.062 0-1.933.345-2.604 1.043A3.457 3.457 0 0 0-7 1.369c0 .994.334 1.832 1.008 2.531.671.699 1.542 1.046 2.604 1.046 1.09 0 1.974-.347 2.646-1.046.674-.699 1.01-1.537 1.01-2.531C.268.888.175.43 0 0m3.598 4.092a6.588 6.588 0 0 1-1.544 2.204C1.399 6.915.603 7.408-.321 7.765c-.929.352-1.95.531-3.067.531-1.089 0-2.092-.179-3.005-.531a7.507 7.507 0 0 1-2.379-1.469 6.486 6.486 0 0 1-1.558-2.204 6.736 6.736 0 0 1-.551-2.723c0-.964.181-1.856.551-2.681A6.822 6.822 0 0 1-8.772-3.5a7.201 7.201 0 0 1 2.379-1.484c.913-.353 1.916-.532 3.005-.532 1.117 0 2.138.179 3.067.532.924.356 1.72.846 2.375 1.484a6.936 6.936 0 0 1 1.544 2.188c.367.825.551 1.717.551 2.681 0 .97-.184 1.871-.551 2.723" style="fill:#231916;fill-opacity:1;fill-rule:nonzero;stroke:none" transform="matrix(5.8421 0 0 -5.8421 1065.858 246.58)"/><path d="M0 0v4.336h-4.034V0h-7.801v-3.387H7.876V0Z" style="fill:#231916;fill-opacity:1;fill-rule:nonzero;stroke:none" transform="matrix(5.8421 0 0 -5.8421 1057.856 171.21)"/><path d="M0 0c-1.017 0-1.523.509-1.523 1.52v8.56h4.031V3.538h16.441V0Z" style="fill:#231916;fill-opacity:1;fill-rule:nonzero;stroke:none" transform="matrix(5.8421 0 0 -5.8421 1050.53 352.828)"/><path d="M0 0h-5.326v3.5H0v3.309h-5.326v3.503H0v8.938h4.029V-7.079H0Z" style="fill:#231916;fill-opacity:1;fill-rule:nonzero;stroke:none" transform="matrix(5.8421 0 0 -5.8421 1133.453 261.237)"/><path d="M0 0h-3.652v-15.867H-7.57v29.035h3.918V3.462H0v10.16h3.921v-30.593H0Zm-24.734 11.303h12.752V7.767H-20.7V-5.135h2.167c1.448.047 2.928.113 4.436.19 1.509.076 2.901.265 4.166.569l.575-3.347c-1.652-.381-3.465-.63-5.448-.745-1.974-.109-3.968-.18-5.968-.208h-2.439c-1.018 0-1.523.51-1.523 1.523z" style="fill:#231916;fill-opacity:1;fill-rule:nonzero;stroke:none" transform="matrix(5.8421 0 0 -5.8421 1337.29 228.359)"/><path d="M773.689 255.984h-23.55V77.263h23.55zM639.911 185.08h47.56v-75.17h-47.56zm-23.368-95.612h94.238v116.06h-85.13c-6.07 0-9.108-2.974-9.108-8.898z" style="fill:#231916;fill-opacity:1;fill-rule:nonzero;stroke:none;stroke-width:5.84209" transform="translate(781.666 71.517)"/><path d="M0 0h4.111v-1.141c0-1.04.307-2.008.912-2.916.611-.898 1.414-1.724 2.418-2.486.999-.764 2.163-1.434 3.484-2.017a30.664 30.664 0 0 1 4.107-1.483l-1.607-3.16c-2.681.813-5.02 1.812-7.011 3.007-1.991 1.188-3.442 2.512-4.357 3.957C1.143-7.684-.31-9.008-2.3-10.196c-1.991-1.195-4.333-2.194-7.022-3.007l-1.599 3.16A30.88 30.88 0 0 1-6.813-8.56c1.323.583 2.484 1.253 3.489 2.017.994.762 1.804 1.588 2.413 2.486.61.908.911 1.876.911 2.916Zm-4.491-30.366v-2.356H13.2v-3.428H-6.885c-1.015 0-1.525.509-1.525 1.522v7.647H8.331v2.356H-8.41v3.431H0v2.7h-13.852v3.505h31.818v-3.505H4.031v-2.7h8.222v-9.172z" style="fill:#231916;fill-opacity:1;fill-rule:nonzero;stroke:none" transform="matrix(5.8421 0 0 -5.8421 1667.189 146.838)"/><path d="M0 0v-3.5h-5.135v-12.022h-4.04v25.644h4.04V0Zm-23.366-24.806c-1.013 0-1.523.509-1.523 1.52v9.284h4.039v-7.266h16.74v-3.538zm9.889 31.581c0-2.387-.09-4.504-.279-6.375-.189-1.862-.449-3.481-.781-4.85l-3.848.381c.28 1.446.513 2.908.688 4.376a37.25 37.25 0 0 1 .265 4.45h-13.203v3.541h17.158zm-8.517-14.041h1.103c1.624.051 3.251.157 4.889.324 1.635.165 3.199.438 4.702.819l.568-3.312a28.774 28.774 0 0 0-2.835-.607 40.126 40.126 0 0 0-3.347-.422 118.413 118.413 0 0 0-3.579-.249 67.416 67.416 0 0 0-3.522-.094h-8.862v3.541h6.847v7.078h4.036z" style="fill:#231916;fill-opacity:1;fill-rule:nonzero;stroke:none" transform="matrix(5.8421 0 0 -5.8421 1977.322 207.911)"/></svg>